<svg xmlns="http://www.w3.org/2000/svg" viewBox="12 12 50 50" style="background-color:black">
        <g stroke="#fff">
          
          <path
            d="M44.468 38.14c-11.68 0-21.15 10.12-21.15 20.465M53.688 47.125c0-2.22-1.306-4.494-3.763-6.316-1.831-1.358-4.158-2.343-6.623-2.752l-.01 18.128c2.464-.406 4.793-1.39 6.626-2.746 2.46-1.821 3.768-4.094 3.77-6.314zM31.343 28.52c-.002-2.22 1.305-4.494 3.762-6.316 1.831-1.358 4.159-2.343 6.623-2.751l.01 18.128c-2.464-.407-4.793-1.39-6.625-2.747-2.46-1.82-3.769-4.094-3.77-6.314z"
            stroke-width="5"
          />
        </g>
      </svg>